# xmcd CD database file
#
# Track frame offsets:
#	150
#	12394
#	25015
#	39388
#	53818
#	65818
#	76990
#	91208
#	103733
#	115679
#	130540
#	144269
#	171984
#	185272
#	197190
#
# Disc length: 2806 seconds
#
# Revision: 0
# Processed by: cddbd v1.5.2PL0 Copyright (c) Steve Scherf et al.
# Submitted via: CDex 1.51
#
DISCID=c10af40f
DTITLE=Various Artist - Jazz After Midnight
DYEAR=2007
DGENRE=Jazz
TTITLE0=S'wonderful - Dave Brubeck
TTITLE1=Mischevious Lady - Dexter Gordon Quintet
TTITLE2=Round Midnight - Thelonius Monk
TTITLE3=Five Brothers - Stan Getz
TTITLE4=Fine and Dandy - Oscar Peterson
TTITLE5=The Lady Is A Tramp - Tony Bennett
TTITLE6=Stormy Weather - Peggy Lee
TTITLE7=Dizy Atmosphere - Dizzy Gillespie
TTITLE8=A Tisket  a Tasket - Ella Fitzgerald
TTITLE9=Pennies From Heavan - Billie Holiday
TTITLE10=Dexterity - Miles Davies woth The Charlie Parker Quintet
TTITLE11=Cool Blues - Charlie Parker
TTITLE12=Piano Stomp (Shine) - Lionel Hampton
TTITLE13=Me Myself and I - (Are all in love with you) - Billie Holiday
TTITLE14=All or Nothing at All - Frank Sinatra
EXTD=YEAR: 2007
EXTT0=
EXTT1=
EXTT2=
EXTT3=
EXTT4=
EXTT5=
EXTT6=
EXTT7=
EXTT8=
EXTT9=
EXTT10=
EXTT11=
EXTT12=
EXTT13=
EXTT14=
PLAYORDER=
